<svg width="198" height="110" viewBox="0 0 198 110" fill="none" xmlns="http://www.w3.org/2000/svg">
<path d="M78.0939 31.187C77.9085 32.199 77.7959 33.2377 77.5309 34.2164C76.5706 37.732 74.8221 40.6017 72.0801 42.5925C70.5501 43.7044 68.8877 44.3369 67.0597 44.1971C64.4171 43.9907 62.5559 42.4193 61.4168 39.7161C60.6153 37.8119 60.4167 35.7878 60.6021 33.6905C60.9068 30.2149 62.1321 27.2187 64.1852 24.6686C65.6688 22.8243 67.4505 21.4993 69.6096 20.9866C73.1994 20.1344 76.3123 22.1918 77.5376 26.2066C77.8091 27.1055 77.9151 28.0709 78.0939 29.0097C78.0939 29.7421 78.0939 30.4679 78.0939 31.187Z" fill="black"/>
<path d="M43.7461 15.72C43.8521 11.3189 44.9979 7.40391 47.5412 4.06149C48.8592 2.33036 50.462 0.992068 52.4556 0.352881C55.5221 -0.639189 58.5291 0.519336 60.4432 3.35573C61.7744 5.32655 62.4698 7.57036 62.6818 9.98729C63.0726 14.5481 62.1056 18.7362 59.708 22.4847C58.3767 24.5621 56.6812 26.16 54.4823 27.0655C51.727 28.1974 48.5612 27.3319 46.6007 24.875C44.872 22.6978 44.064 20.1211 43.8388 17.278C43.7925 16.732 43.7726 16.1927 43.7461 15.72Z" fill="black"/>
<path d="M35.381 14.6613C35.3479 17.8772 34.8247 20.5205 33.4603 22.8975C32.3807 24.7751 30.9369 26.1667 28.9433 26.7393C26.7245 27.3785 24.7111 26.7992 22.8632 25.4077C20.5517 23.6699 19.0946 21.2063 18.1409 18.35C17.26 15.6934 16.9553 12.9435 17.26 10.1404C17.5249 7.68355 18.2336 5.39979 19.651 3.42897C22.1943 -0.106535 26.2543 -0.772354 29.6255 1.80437C32.1688 3.74856 33.7186 6.48507 34.6194 9.70098C34.8644 10.5799 35.0499 11.492 35.1823 12.4042C35.3082 13.2897 35.3413 14.1886 35.381 14.6613Z" fill="black"/>
<path d="M17.1474 34.6292C17.1474 36.7798 16.7434 38.8106 15.7234 40.6483C13.9484 43.8442 10.6435 45.0493 7.49082 43.6578C5.03362 42.5725 3.24536 40.615 1.92735 38.0915C0.58284 35.5214 -0.0993475 32.745 0.0132466 29.7488C0.105971 27.3785 0.675565 25.1813 2.05981 23.3436C3.87456 20.9334 6.6298 20.141 9.38505 21.2063C11.5773 22.0586 13.2596 23.6699 14.5909 25.7805C16.2533 28.4238 17.1143 31.3801 17.1474 34.6292Z" fill="black"/>
<path d="M67.2915 68.4595C66.9074 70.0442 66.2848 71.1428 65.8278 71.9151C60.814 80.4909 59.761 77.9075 46.806 97.5026L41.726 105.486C40.1895 108.042 39.7192 109.7 38.6661 109.567C37.4607 109.414 35.646 107.523 34.4207 105C33.0695 102.223 31.7383 99.8596 30.0759 97.2562C26.3603 91.4436 13.7696 79.7185 10.7759 71.7553C9.92815 69.5049 8.1995 63.2528 10.8289 57.4003C11.7826 55.2896 13.3722 53.3654 16.5513 49.5303C19.9888 45.3822 19.6576 45.6486 22.1744 42.153C23.8567 39.816 25.5324 37.4656 27.2875 35.1819C28.6254 33.4508 30.2216 31.9793 32.182 30.9473C33.8113 30.0884 35.5466 29.7222 37.368 29.7621C39.4344 29.8087 41.4412 30.155 43.3289 31.0472C45.4946 32.0725 47.2167 33.6505 48.581 35.5814C50.7203 38.6109 52.0251 39.8826 54.1644 42.6191C57.2375 46.5474 57.7144 46.4675 59.953 49.3106C62.9533 53.1191 69.252 58.8451 67.2915 68.4595ZM57.8866 59.6108C56.9196 57.1273 55.3565 55.0766 53.3828 53.3321C51.8264 51.9472 50.4951 50.3759 49.3361 48.6514C48.2499 47.0268 47.2034 45.3756 46.0841 43.7843C45.137 42.4393 43.9382 41.3407 42.4281 40.6283C41.1167 40.0024 39.7192 39.7627 38.282 39.7361C36.9971 39.7095 35.7851 39.9691 34.6459 40.575C33.2947 41.2941 32.1887 42.3128 31.2614 43.5046C30.0361 45.0893 28.8704 46.7272 27.7048 48.3518C26.3669 50.2161 24.9098 51.9672 23.1811 53.4853C21.4525 55.0033 20.1014 56.8277 19.194 58.9649C18.3595 60.9291 18.0018 62.9732 18.3661 65.0971C18.7966 67.6139 20.108 69.5781 22.2274 70.963C24.0488 72.1548 26.0887 72.3346 28.1551 71.9351C30.109 71.5556 32.0297 70.983 33.9769 70.5502C35.1691 70.2839 36.3811 70.0309 37.5998 69.9443C39.4808 69.8045 41.3287 70.1973 43.15 70.67C44.7595 71.0895 46.3623 71.5223 47.9849 71.9018C49.2632 72.1948 50.568 72.248 51.8661 71.9684C55.4426 71.196 58.688 68.0267 58.6483 63.5458C58.635 62.2474 58.3237 60.7427 57.8866 59.6108Z" fill="black"/>
<path d="M106.958 17.8107C107.024 17.8107 107.103 17.8173 107.203 17.8373C107.302 17.8573 107.382 17.8573 107.448 17.8573C107.68 17.8573 107.859 17.8772 107.991 17.9105H108.481C109.6 17.9105 110.779 18.0437 112.031 18.3034C113.342 18.5697 114.634 18.9825 115.899 19.5418C117.164 20.1011 118.356 20.8401 119.476 21.7456C120.595 22.6578 121.602 23.7897 122.509 25.1413C123.41 26.4996 124.145 28.0976 124.701 29.9485C125.158 31.4333 125.489 33.0446 125.688 34.7824C125.887 36.5202 125.986 38.3245 125.986 40.2088C125.986 43.0852 125.748 45.9748 125.271 48.8844C124.794 51.7941 124.099 54.3841 123.178 56.6679C121.701 60.3032 119.813 62.9732 117.535 64.671C115.25 66.3755 112.846 67.2211 110.309 67.2211H109.124C107.812 67.2211 106.461 67.0746 105.083 66.775C103.772 66.5087 102.48 66.1025 101.215 65.5366C99.9504 64.9773 98.7583 64.2382 97.6389 63.3327C96.5196 62.4272 95.5129 61.2953 94.6055 59.937C93.6982 58.5788 92.9696 56.9808 92.4133 55.1298C91.9496 53.645 91.6251 52.0338 91.4264 50.296C91.2277 48.5648 91.1284 46.7538 91.1284 44.8695C91.1284 41.9932 91.3668 39.1036 91.8437 36.2006C92.3205 33.2909 93.016 30.7009 93.9366 28.4172C95.4136 24.7818 97.3078 22.1052 99.606 20.3874C101.904 18.6696 104.322 17.8107 106.852 17.8107H106.958ZM108.402 30.7941C108.097 30.8274 107.786 30.8607 107.461 30.894C107.13 30.9273 106.819 30.9939 106.521 31.0937C105.666 31.2935 104.838 31.6064 104.03 32.0326C103.474 33.6172 103.037 35.4282 102.706 37.459C102.381 39.4897 102.216 41.5005 102.216 43.4846C102.216 45.6352 102.408 47.6327 102.779 49.4837C103.156 51.3347 103.746 52.7395 104.554 53.6983C105.004 54.2576 105.534 54.6637 106.136 54.9101C106.739 55.1565 107.395 55.283 108.097 55.283C108.799 55.283 109.554 55.1565 110.362 54.9101C111.163 54.6637 111.998 54.3375 112.852 53.9447C113.051 52.9859 113.256 51.9539 113.455 50.8486C113.654 49.7433 113.833 48.6114 113.985 47.4529C114.137 46.2944 114.263 45.1425 114.362 43.984C114.462 42.8255 114.515 41.7202 114.515 40.6616C114.515 39.3432 114.442 38.1315 114.29 37.0462C114.091 35.8544 113.8 34.8689 113.422 34.07C113.044 33.2776 112.594 32.6384 112.064 32.1591C111.534 31.6797 110.958 31.3334 110.329 31.1204C109.7 30.9007 109.057 30.7941 108.402 30.7941Z" fill="black"/>
<path d="M157.287 18.603C157.552 18.603 157.811 18.6496 158.075 18.7495C158.34 18.8493 158.599 18.9692 158.864 19.0957C159.287 19.362 159.725 19.675 160.168 20.0412C160.612 20.4074 161.029 20.8734 161.427 21.4527C161.824 22.032 162.169 22.7111 162.46 23.4834C162.758 24.2624 162.983 25.1946 163.149 26.2799C163.348 27.6382 163.447 29.2028 163.447 30.9872C163.447 32.9048 163.381 34.9622 163.248 37.1594C163.116 39.3566 163.016 41.5604 162.95 43.7776C162.917 44.8363 162.891 45.8683 162.877 46.8737C162.857 47.8791 162.851 48.8645 162.851 49.8232C162.851 51.1149 162.857 52.36 162.877 53.5652C162.897 54.7703 162.904 55.9022 162.904 56.9608C162.904 57.5867 162.904 58.1859 162.904 58.7452C162.904 59.3045 162.884 59.8372 162.857 60.3299C162.824 61.2887 162.778 62.0876 162.712 62.7335C162.645 63.3793 162.573 63.912 162.486 64.3448C162.4 64.7775 162.308 65.1105 162.188 65.3635C162.069 65.6098 161.963 65.8162 161.871 65.9827C161.639 66.2823 161.387 66.4554 161.109 66.502C160.831 66.5486 160.36 66.6086 159.705 66.6751C159.572 66.6751 159.446 66.6818 159.334 66.7018C159.215 66.7217 159.076 66.7284 158.917 66.7284C158.652 66.7284 158.367 66.6951 158.056 66.6285C157.744 66.5619 157.42 66.4288 157.095 66.229C156.241 66.0027 155.333 65.5299 154.386 64.8175C153.433 64.1051 152.499 63.0264 151.578 61.5683C151.055 60.7427 150.532 59.7772 150.022 58.672C149.512 57.5667 149.002 56.3882 148.492 55.1498C147.982 53.9114 147.465 52.6064 146.935 51.2348C146.412 49.8632 145.882 48.485 145.359 47.0934V49.8166C145.359 51.3014 145.366 52.7196 145.385 54.0579C145.405 55.3962 145.412 56.6279 145.412 57.7532C145.412 58.2192 145.412 58.672 145.412 59.1114C145.412 59.5575 145.392 59.9637 145.366 60.3299C145.299 61.2887 145.207 62.0876 145.094 62.7335C144.975 63.3793 144.849 63.912 144.697 64.3448C144.544 64.7775 144.379 65.1105 144.18 65.3635C143.981 65.6098 143.783 65.8162 143.591 65.9827C143.193 66.2823 142.749 66.4554 142.259 66.502C141.769 66.5486 140.981 66.6086 139.895 66.6751C139.696 66.6751 139.491 66.6818 139.279 66.7018C139.067 66.7217 138.829 66.7284 138.564 66.7284C138.04 66.7284 137.477 66.6885 136.888 66.6019C136.298 66.522 135.702 66.3555 135.113 66.1025C134.523 65.8562 133.947 65.5033 133.391 65.0372C132.828 64.5711 132.325 63.9653 131.861 63.2062C131.305 62.2807 130.814 61.1155 130.41 59.7107C130 58.3058 129.655 56.7478 129.377 55.0233C129.099 53.3055 128.894 51.4745 128.761 49.5236C128.629 47.5728 128.549 45.5753 128.516 43.5246V42.0864C128.516 40.1689 128.563 38.2513 128.662 36.3404C128.761 34.4228 128.907 32.6052 129.106 30.8873C129.304 29.1695 129.549 27.5915 129.847 26.1534C130.146 24.7152 130.503 23.4901 130.934 22.4647C131.523 20.98 132.232 19.9679 133.053 19.4419C133.874 18.9159 134.762 18.6496 135.716 18.6496C136.179 18.6496 136.63 18.6895 137.073 18.7761C137.517 18.8627 137.987 18.9825 138.477 19.149C138.941 19.3154 139.398 19.4885 139.855 19.6683C140.319 19.8481 140.776 20.0744 141.233 20.3408C141.63 20.3741 142.021 20.5339 142.418 20.8135C142.809 21.0931 143.226 21.5659 143.65 22.225C144.114 22.751 144.531 23.3503 144.909 24.0094C145.286 24.6686 145.591 25.4276 145.823 26.2865C145.889 26.6194 145.942 26.9524 145.995 27.2786C146.041 27.6115 146.101 27.9577 146.167 28.3173C146.823 30.2016 147.531 32.2723 148.286 34.536C149.041 36.7998 149.929 39.0902 150.949 41.4006C151.313 42.193 151.671 42.9853 152.035 43.7776C152.399 44.5699 152.757 45.3623 153.121 46.1546C153.121 45.6885 153.121 45.2557 153.121 44.8429C153.121 44.4301 153.101 43.9907 153.075 43.5246V42.2862C153.075 40.3353 153.101 38.4044 153.148 36.4869C153.194 34.5693 153.287 32.745 153.419 31.0139C153.552 29.2761 153.698 27.6781 153.863 26.2066C154.029 24.7352 154.241 23.4901 154.506 22.4647C154.87 20.98 155.287 19.9613 155.764 19.4153C156.208 18.8693 156.724 18.603 157.287 18.603Z" fill="black"/>
<path d="M184.343 17.9039C186.35 17.9372 188.204 18.2901 189.913 18.9692C191.622 19.6483 192.966 20.7136 193.953 22.1651C194.708 23.2238 195.232 24.4622 195.53 25.8804C195.828 27.2986 195.973 28.7035 195.973 30.095C195.973 31.0871 195.907 32.0326 195.775 32.9447C195.642 33.8569 195.477 34.6692 195.284 35.4016C195.02 36.2272 194.735 36.893 194.423 37.4124C194.112 37.9251 193.781 38.3246 193.437 38.6242C193.092 38.9238 192.754 39.1169 192.423 39.2168C192.092 39.3166 191.801 39.3632 191.536 39.3632H191.436C191.171 39.3632 190.946 39.3233 190.748 39.2367C190.549 39.1568 190.35 39.0237 190.158 38.8439C189.959 38.6641 189.741 38.4444 189.489 38.198C189.244 37.9517 188.939 37.6587 188.575 37.3258C188.151 36.9663 187.641 36.6001 187.045 36.2339C186.456 35.8743 185.827 35.6879 185.171 35.6879C184.681 35.6879 184.191 35.8477 183.714 36.1606C183.237 36.4736 182.767 37.0595 182.31 37.9184C181.945 38.6441 181.608 39.5497 181.296 40.6216C180.985 41.6936 180.713 42.8521 180.482 44.0905C180.25 45.329 180.078 46.6007 179.965 47.9057C179.846 49.2107 179.793 50.4425 179.793 51.5943C179.793 52.3201 179.819 52.9992 179.866 53.6251C179.912 54.2509 180.005 54.8169 180.137 55.3096C180.402 56.3683 180.773 57.094 181.25 57.4868C181.727 57.8797 182.296 58.0794 182.952 58.0794C183.542 58.0794 184.204 57.9462 184.926 57.6799C184.727 56.7877 184.581 55.8889 184.482 54.9833C184.383 54.0712 184.336 53.1923 184.336 52.3334C184.336 50.8153 184.502 49.5436 184.826 48.5182C185.158 47.4596 185.654 46.6007 186.33 45.9415C187.006 45.2824 187.741 44.763 188.549 44.3835C189.357 44.004 190.185 43.731 191.039 43.5645C191.893 43.3981 192.682 43.2849 193.404 43.2183C193.569 43.185 193.741 43.1717 193.92 43.1717C194.099 43.1717 194.271 43.1717 194.437 43.1717C195.523 43.1717 196.331 43.3981 196.874 43.8375C197.417 44.2836 197.755 45.1692 197.887 46.4942C197.921 46.7938 197.947 47.12 197.96 47.4862C197.974 47.8524 197.987 48.2319 197.987 48.6248C197.987 49.4171 197.96 50.256 197.914 51.1283C197.868 52.0005 197.808 52.8927 197.742 53.8048C197.675 54.717 197.603 55.6092 197.523 56.4814C197.444 57.3537 197.384 58.1593 197.351 58.885C197.252 60.736 197.205 62.1609 197.205 63.1729C197.205 64.185 197.073 64.9507 196.814 65.4767C196.55 66.0027 196.112 66.3489 195.51 66.5153C194.9 66.6818 194.139 66.8283 193.218 66.9614C192.986 66.9947 192.754 67.0214 192.529 67.0347C192.297 67.0546 192.052 67.0613 191.787 67.0613C191.198 67.0613 190.589 66.9548 189.966 66.7351C189.344 66.522 188.714 66.0493 188.092 65.3235C187.039 65.8828 185.946 66.3289 184.813 66.6618C183.681 66.9947 182.535 67.1612 181.389 67.1612H181.19C179.872 67.1612 178.594 66.9348 177.342 66.4887C176.091 66.0426 174.905 65.3568 173.766 64.4313C172.633 63.5058 171.6 62.3473 170.66 60.9624C169.726 59.5708 168.924 57.9396 168.269 56.0553C167.513 53.9713 166.957 51.6676 166.593 49.1441C166.229 46.614 166.05 44.0639 166.05 41.4872C166.05 39.2767 166.189 37.1194 166.467 35.0154C166.745 32.9181 167.182 31.0272 167.772 29.3427C168.394 27.525 169.183 25.9536 170.136 24.6353C171.09 23.317 172.143 22.2051 173.289 21.3129C174.441 20.4207 175.66 19.7282 176.965 19.2289C178.263 18.7295 179.568 18.37 180.886 18.1369C181.475 18.0703 182.058 18.0104 182.634 17.9638C183.217 17.9305 183.787 17.9039 184.343 17.9039Z" fill="black"/>
<path d="M106.507 75.3707C106.819 75.3707 107.11 75.3707 107.382 75.3707C107.653 75.3707 107.905 75.3907 108.157 75.4373C108.806 75.4839 109.342 75.5705 109.766 75.7103C110.19 75.8435 110.534 75.9966 110.793 76.1631C111.051 76.3295 111.243 76.5226 111.362 76.7357C111.488 76.9487 111.568 77.1684 111.614 77.3948C111.634 77.488 111.647 77.6212 111.647 77.801C111.647 78.1872 111.495 78.5267 111.19 78.8263C110.885 79.1326 110.302 79.3257 109.428 79.4189C109.203 79.4655 108.971 79.4855 108.726 79.4855C108.481 79.4855 108.223 79.4855 107.951 79.4855C107.395 79.4855 106.805 79.4722 106.189 79.4322C105.574 79.3989 104.944 79.359 104.295 79.3124C104.342 79.4056 104.361 79.4922 104.361 79.5854C104.474 80.0581 104.56 80.5908 104.613 81.19C104.666 81.7892 104.699 82.4351 104.699 83.1275C104.699 84.2328 104.653 85.4046 104.567 86.6564C104.474 87.9081 104.388 89.1732 104.295 90.4582C105.057 90.365 105.792 90.2984 106.507 90.2385C107.223 90.1852 107.872 90.1519 108.455 90.1519C108.567 90.1519 108.686 90.1586 108.806 90.1652C108.931 90.1786 109.044 90.1852 109.157 90.1852C110.144 90.2318 110.799 90.4116 111.137 90.7245C111.475 91.0375 111.64 91.3903 111.64 91.7699C111.64 91.9297 111.627 92.0428 111.607 92.1028C111.561 92.3292 111.481 92.5555 111.356 92.7752C111.23 93.0016 111.031 93.2014 110.753 93.3811C110.475 93.5609 110.104 93.7274 109.647 93.8739C109.19 94.0203 108.614 94.1402 107.918 94.2267C107.382 94.2933 106.786 94.3399 106.136 94.3599C105.487 94.3799 104.805 94.3932 104.09 94.3932C104.07 94.8393 104.057 95.292 104.057 95.7448C104.057 96.1976 104.057 96.6437 104.057 97.0964C104.057 98.1351 104.063 99.1072 104.077 100.019C104.09 100.932 104.09 101.777 104.09 102.569C104.09 102.949 104.09 103.322 104.09 103.681C104.09 104.041 104.077 104.38 104.057 104.693C104.057 104.873 104.044 105.006 104.024 105.1C104.805 104.986 105.574 104.9 106.322 104.827C107.07 104.76 107.739 104.727 108.322 104.727H108.825C109.673 104.793 110.249 104.973 110.541 105.266C110.832 105.559 110.978 105.899 110.978 106.278C110.978 106.458 110.965 106.591 110.945 106.684C110.879 107.137 110.634 107.563 110.223 107.969C109.806 108.375 108.998 108.702 107.786 108.948C107.117 109.061 106.329 109.148 105.434 109.221C104.54 109.288 103.633 109.321 102.712 109.321C101.977 109.321 101.262 109.301 100.58 109.254C99.8975 109.208 99.2947 109.154 98.7848 109.088C97.9569 108.955 97.3277 108.775 96.9038 108.549C96.5196 108.369 96.162 108.129 95.8308 107.843C95.493 107.55 95.1817 107.157 94.8903 106.664C94.4863 106.032 94.1485 105.239 93.8637 104.287C93.5856 103.328 93.3537 102.27 93.1749 101.098C92.9961 99.9261 92.8636 98.6811 92.7709 97.3494C92.6848 96.0245 92.6252 94.6595 92.6053 93.268V91.9496C92.6053 90.6646 92.6384 89.3862 92.7047 88.1145C92.7709 86.8428 92.8702 85.6377 93.0093 84.5058C93.1418 83.3672 93.3074 82.3219 93.5127 81.3631C93.7114 80.4043 93.9498 79.592 94.2148 78.9129C94.6651 77.8542 95.2082 77.1218 95.8573 76.7157C95.9434 76.5359 96.1686 76.3894 96.5263 76.2762C96.8839 76.1631 97.5661 76.0499 98.5728 75.9433C99.0629 75.8768 99.6325 75.8102 100.288 75.7369C100.937 75.6704 101.613 75.6104 102.322 75.5505C103.024 75.4972 103.739 75.4506 104.454 75.4173C105.176 75.3907 105.858 75.3707 106.507 75.3707Z" fill="black"/>
<path d="M123.098 87.9947C123.012 87.6817 122.926 87.3155 122.847 86.8961C122.767 86.4766 122.608 86.1503 122.357 85.904C122.131 85.7242 121.873 85.631 121.588 85.631C121.098 85.631 120.635 85.8308 120.211 86.2369C120.032 86.4167 119.866 86.6564 119.727 86.9427C119.588 87.229 119.509 87.5752 119.509 87.9547C119.509 88.5606 119.734 89.2397 120.178 89.9788C120.449 90.4316 120.807 90.8976 121.251 91.377C121.694 91.8564 122.191 92.3624 122.728 92.8818C123.264 93.4011 123.827 93.9271 124.423 94.4531C125.013 94.9858 125.582 95.4984 126.119 95.9911C127.218 97.0032 128.159 97.982 128.94 98.9274C129.722 99.8729 130.218 100.865 130.417 101.897C130.463 102.057 130.483 102.203 130.483 102.35C130.483 102.496 130.483 102.636 130.483 102.769C130.483 103.695 130.251 104.587 129.794 105.452C129.337 106.318 128.669 107.077 127.794 107.73C126.94 108.315 125.953 108.775 124.82 109.094C123.688 109.421 122.489 109.581 121.211 109.581C120.654 109.581 120.092 109.547 119.535 109.481C118.754 109.394 117.992 109.241 117.25 109.028C116.508 108.815 115.806 108.542 115.137 108.216C114.468 107.889 113.852 107.516 113.29 107.104C112.733 106.684 112.263 106.225 111.879 105.705C111.428 105.12 111.104 104.5 110.905 103.848C110.706 103.195 110.601 102.529 110.601 101.857C110.601 100.865 110.812 99.9195 111.236 99.0206C111.481 98.5279 111.779 98.0752 112.124 97.669C112.468 97.2629 112.826 96.9166 113.184 96.6237C113.541 96.3307 113.886 96.1043 114.223 95.9512C114.561 95.7914 114.839 95.7182 115.065 95.7182H115.098C115.323 95.7182 115.488 95.8047 115.601 95.9712C115.714 96.1376 115.8 96.3574 115.873 96.6303C115.939 96.9033 116.005 97.2163 116.071 97.5758C116.137 97.9353 116.25 98.3149 116.409 98.721C116.541 99.1272 116.734 99.5267 116.979 99.9195C117.224 100.312 117.502 100.692 117.8 101.051C118.105 101.411 118.429 101.724 118.774 101.997C119.118 102.27 119.476 102.47 119.833 102.603C120.171 102.736 120.502 102.802 120.84 102.802C121.29 102.802 121.655 102.683 121.946 102.45C122.237 102.217 122.383 101.87 122.383 101.418C122.383 101.258 122.37 101.138 122.35 101.045C122.284 100.685 122.118 100.279 121.847 99.8263C121.575 99.3802 121.244 98.9074 120.853 98.428C120.462 97.9487 120.019 97.456 119.529 96.9632C119.038 96.4705 118.535 95.9978 118.018 95.5451C117.502 95.0723 116.992 94.6262 116.475 94.2134C115.959 93.7939 115.482 93.3612 115.031 92.8951C114.581 92.4357 114.177 91.9496 113.806 91.4436C113.435 90.9376 113.137 90.3583 112.919 89.7058C112.607 88.7604 112.448 87.7483 112.448 86.6697C112.448 85.6776 112.574 84.6855 112.819 83.6802C113.064 82.6748 113.448 81.7626 113.958 80.9303C114.362 80.2778 114.826 79.6986 115.349 79.1925C115.873 78.6865 116.449 78.2471 117.065 77.8742C117.681 77.5013 118.323 77.2017 118.992 76.9754C119.661 76.749 120.343 76.5958 121.039 76.5026C121.529 76.436 122.032 76.4027 122.549 76.4027C123.648 76.4027 124.675 76.5625 125.635 76.8755C126.595 77.1884 127.403 77.6412 128.053 78.2271C128.43 78.5866 128.748 78.9795 128.993 79.4056C129.238 79.8317 129.437 80.2778 129.583 80.7372C129.728 81.1966 129.841 81.6694 129.92 82.1355C130 82.6082 130.059 83.0476 130.106 83.4538C130.152 83.8799 130.185 84.2727 130.205 84.619C130.225 84.9718 130.238 85.2981 130.238 85.6177C130.238 85.9106 130.225 86.177 130.205 86.43C130.185 86.6763 130.126 86.9027 130.04 87.1025C129.881 87.482 129.642 87.7883 129.318 88.0146C128.993 88.241 128.563 88.4341 128.026 88.5872C127.556 88.7204 127.039 88.8269 126.463 88.9068C125.893 88.9867 125.383 89.0267 124.933 89.0267H124.529C124.079 88.9801 123.761 88.8802 123.555 88.7204C123.37 88.5806 123.211 88.3342 123.098 87.9947Z" fill="black"/>
<path d="M148.75 76.5892C149.916 76.6358 150.697 76.8289 151.101 77.1618C151.505 77.5014 151.704 77.8942 151.704 78.3469C151.704 78.5267 151.691 78.6599 151.671 78.7531C151.624 79.0261 151.525 79.2857 151.366 79.5454C151.207 79.8051 150.969 80.0514 150.644 80.2911C150.32 80.5308 149.876 80.7439 149.32 80.9303C148.763 81.1234 148.055 81.2832 147.207 81.423C146.896 81.4696 146.545 81.5096 146.167 81.5429C145.783 81.5762 145.392 81.6161 144.995 81.6627C145.041 81.8891 145.068 82.1221 145.081 82.3552C145.094 82.5949 145.107 82.8679 145.134 83.1808C145.154 83.4538 145.167 83.7401 145.167 84.0597C145.167 84.3793 145.167 84.6989 145.167 85.0384C145.167 85.7575 145.16 86.5299 145.147 87.3488C145.134 88.1678 145.134 89.04 145.134 89.9655C145.134 90.618 145.134 91.2772 145.134 91.9363C145.134 92.6021 145.154 93.268 145.2 93.9471C145.246 95.4319 145.326 96.89 145.438 98.3215C145.551 99.753 145.604 101.085 145.604 102.323C145.604 102.909 145.584 103.455 145.551 103.961C145.518 104.467 145.452 104.933 145.366 105.359C145.233 106.012 145.021 106.564 144.743 107.01C144.465 107.457 144.14 107.823 143.789 108.089C143.432 108.362 143.047 108.568 142.65 108.715C142.253 108.861 141.842 108.961 141.438 109.001C141.325 109.021 141.206 109.041 141.067 109.055C140.935 109.068 140.809 109.068 140.696 109.068C140.047 109.068 139.438 108.848 138.868 108.409C138.299 107.969 137.809 107.11 137.405 105.825C137.206 105.126 137.02 104.294 136.848 103.328C136.683 102.363 136.544 101.318 136.444 100.186C136.345 99.0606 136.265 97.8821 136.212 96.6437C136.153 95.4052 136.126 94.1668 136.126 92.9284V91.8498C136.146 89.9122 136.239 88.0812 136.398 86.3501C136.557 84.619 136.789 83.1076 137.1 81.8292C136.63 81.8292 136.186 81.8225 135.775 81.8159C135.358 81.8025 134.974 81.7892 134.616 81.7693C133.808 81.7493 133.172 81.7093 132.702 81.6694C132.232 81.6294 131.868 81.5695 131.609 81.5029C131.351 81.4363 131.172 81.3498 131.073 81.2499C130.973 81.15 130.907 81.0169 130.887 80.8637C130.867 80.7972 130.854 80.684 130.854 80.5242C130.854 80.2112 130.92 79.8916 131.053 79.5654C131.185 79.2391 131.444 78.9795 131.828 78.7731C132.278 78.5267 132.954 78.3669 133.861 78.3003C134.768 78.2338 136.047 78.1006 137.703 77.8942C138.511 77.781 139.391 77.6545 140.358 77.508C141.319 77.3615 142.286 77.2217 143.259 77.0885C144.233 76.9554 145.174 76.8422 146.081 76.749C146.988 76.6624 147.79 76.6158 148.478 76.6158H148.75V76.5892Z" fill="black"/>
<path d="M159.46 76.4494C159.639 76.4494 159.85 76.4627 160.096 76.5026C160.341 76.5359 160.652 76.5626 161.036 76.5892C161.374 76.5892 161.758 76.6025 162.195 76.6225C162.632 76.6425 163.089 76.729 163.573 76.8755C164.056 77.022 164.56 77.2617 165.083 77.6012C165.606 77.9408 166.142 78.4202 166.679 79.0527C167.215 79.7052 167.745 80.5042 168.275 81.4497C168.798 82.3951 169.302 83.4538 169.785 84.619C170.269 85.7908 170.739 87.0359 171.196 88.3675C171.653 89.6925 172.083 91.0574 172.487 92.449C172.845 93.6874 173.17 94.9325 173.461 96.1776C173.753 97.4227 174.011 98.6278 174.236 99.773C174.461 100.918 174.633 102.004 174.759 103.029C174.878 104.054 174.945 104.96 174.945 105.745C174.945 105.925 174.945 106.105 174.945 106.285C174.945 106.465 174.931 106.631 174.912 106.791C174.819 107.803 174.574 108.495 174.17 108.868C173.766 109.241 173.276 109.427 172.693 109.427C172.421 109.427 172.136 109.394 171.819 109.328C171.507 109.261 171.183 109.168 170.845 109.055C169.818 108.742 168.759 108.216 167.672 107.483C166.586 106.751 165.666 105.659 164.904 104.194C164.414 103.229 164.01 102.103 163.692 100.818C163.381 99.5333 163.076 98.1884 162.785 96.7635C162.089 96.8567 161.341 96.9233 160.533 96.9699C159.725 97.0165 158.943 97.0365 158.181 97.0365C157.983 97.0365 157.777 97.0298 157.579 97.0165C157.38 97.0032 157.188 97.0032 157.009 97.0032C156.605 98.1085 156.181 99.1804 155.731 100.226C155.28 101.271 154.843 102.243 154.406 103.142C153.969 104.041 153.532 104.853 153.095 105.572C152.658 106.291 152.247 106.877 151.87 107.33C151.485 107.756 151.134 108.062 150.81 108.242C150.485 108.422 150.187 108.515 149.922 108.515C149.498 108.515 149.134 108.362 148.83 108.062C148.525 107.756 148.273 107.403 148.074 106.997C147.763 106.365 147.604 105.646 147.604 104.833C147.604 104.314 147.664 103.755 147.79 103.149C147.916 102.543 148.121 101.844 148.412 101.058C148.929 99.6665 149.624 98.0552 150.492 96.2309C151.366 94.4065 152.214 92.4956 153.042 90.4915C153.446 89.4994 153.823 88.514 154.181 87.5219C154.539 86.5299 154.876 85.5844 155.188 84.6722C155.499 83.7601 155.797 82.9078 156.075 82.1221C156.353 81.3365 156.618 80.6374 156.863 80.0315C157.201 79.2192 157.512 78.5933 157.804 78.1405C158.095 77.6944 158.354 77.3682 158.579 77.1618C158.645 76.962 158.738 76.8022 158.85 76.6891C158.989 76.5293 159.195 76.4494 159.46 76.4494ZM160.268 86.2436C159.976 87.4554 159.639 88.7537 159.241 90.1386C158.85 91.5235 158.42 92.9217 157.95 94.3399H158.923C159.48 94.3399 160.056 94.3532 160.639 94.3732C161.221 94.3932 161.778 94.4398 162.314 94.5064C162.248 94.1202 162.175 93.754 162.096 93.3945C162.016 93.0349 161.93 92.6621 161.844 92.2826C161.599 91.2239 161.341 90.1919 161.076 89.1798C160.804 88.1678 160.539 87.1824 160.268 86.2436ZM160.738 75.2043C160.466 75.1577 160.182 75.0911 159.884 75.0045C159.579 74.9113 159.36 74.8114 159.228 74.6983C159.162 74.6317 159.129 74.5651 159.129 74.4985C159.129 74.3387 159.374 73.9392 159.87 73.2801C160.029 73.0337 160.215 72.7541 160.44 72.4345C160.665 72.1215 160.89 71.7953 161.129 71.4757C161.361 71.1494 161.599 70.8298 161.831 70.5302C162.063 70.224 162.275 69.9709 162.453 69.7712C162.725 69.4583 162.943 69.2452 163.122 69.1453C163.301 69.0455 163.506 68.9922 163.725 68.9922L164.228 69.0255C164.632 69.0721 165.109 69.1387 165.652 69.2252C166.202 69.3184 166.652 69.425 167.01 69.5648C167.348 69.698 167.513 69.8644 167.513 70.0708C167.513 70.2972 167.282 70.6434 166.811 71.1161C166.566 71.3625 166.275 71.6421 165.937 71.9418C165.599 72.2414 165.248 72.5543 164.877 72.8739C164.507 73.1868 164.136 73.4865 163.771 73.7661C163.4 74.0458 163.069 74.2921 162.785 74.4919C162.361 74.8048 162.023 75.0112 161.778 75.0977C161.533 75.191 161.321 75.2309 161.142 75.2309L160.738 75.2043Z" fill="black"/>
<path d="M179.177 102.849C178.727 102.849 178.362 102.783 178.071 102.643C177.779 102.51 177.541 102.163 177.369 101.597C177.236 101.191 177.13 100.679 177.051 100.059C176.971 99.4401 176.932 98.8076 176.932 98.1484C176.932 97.7423 176.945 97.3494 176.985 96.9699C177.024 96.5904 177.077 96.2375 177.17 95.9246C177.256 95.5384 177.402 95.2188 177.587 94.9658C177.779 94.7061 178.024 94.4797 178.329 94.2933C178.634 94.1069 178.998 93.9204 179.435 93.754C179.872 93.5875 180.389 93.3745 180.998 93.1281C181.601 92.8818 182.277 92.5955 183.012 92.2692C183.754 91.943 184.475 91.5834 185.197 91.1906C185.913 90.7978 186.582 90.365 187.211 89.8922C187.84 89.4195 188.343 88.9135 188.721 88.3742C189.012 87.968 189.218 87.5552 189.343 87.1224C189.463 86.6963 189.529 86.2702 189.529 85.8374C189.529 85.1183 189.37 84.4458 189.059 83.8266C188.747 83.2074 188.33 82.708 187.814 82.3219C187.476 82.0755 187.105 81.9024 186.707 81.7959C186.31 81.6893 185.913 81.6427 185.535 81.6427C184.979 81.6427 184.462 81.736 183.992 81.9157C183.522 82.0955 183.164 82.3418 182.919 82.6548C182.674 82.9944 182.548 83.4072 182.548 83.9065C182.548 84.3793 182.621 84.8653 182.767 85.378C182.912 85.884 183.038 86.3501 183.151 86.7762C183.237 87.1158 183.283 87.4287 183.283 87.7217C183.283 88.4607 182.899 88.9601 182.144 89.2064C181.561 89.3862 180.866 89.4794 180.064 89.4794C179.614 89.4794 179.177 89.4461 178.753 89.3796C178.329 89.313 177.945 89.2198 177.614 89.1066C176.965 88.8602 176.501 88.4807 176.223 87.9614C175.945 87.442 175.713 86.7696 175.534 85.9373C175.468 85.5777 175.408 85.2049 175.349 84.8054C175.289 84.4125 175.263 83.9997 175.263 83.5736C175.263 82.9877 175.335 82.3951 175.481 81.7826C175.627 81.1767 175.898 80.5774 176.302 79.9915C176.998 78.9795 178.044 78.1006 179.442 77.3615C180.839 76.6158 182.356 76.1031 183.992 75.8102C184.416 75.7436 184.84 75.6837 185.27 75.6437C185.701 75.6038 186.118 75.5771 186.548 75.5771C187.78 75.5771 188.959 75.7436 190.092 76.0831C191.224 76.4227 192.225 76.9487 193.099 77.6678C194.218 78.6133 195.066 79.7984 195.649 81.2299C196.232 82.6548 196.523 84.0796 196.523 85.4978V86.0371C196.457 87.5219 196.099 88.8536 195.45 90.0187C194.801 91.1906 194.053 92.1693 193.198 92.955C192.35 93.7473 191.483 94.3532 190.595 94.7927C189.708 95.2321 188.9 95.6116 188.158 95.9246C187.416 96.2375 186.787 96.5438 186.264 96.8367C185.734 97.1297 185.363 97.5558 185.138 98.1218C185.025 98.4147 184.939 98.7343 184.886 99.0805C184.833 99.4268 184.773 99.773 184.72 100.106C184.661 100.445 184.588 100.772 184.482 101.085C184.383 101.398 184.217 101.671 183.999 101.897C183.773 102.123 183.495 102.296 183.157 102.423C182.82 102.549 182.455 102.636 182.065 102.696C181.674 102.749 181.29 102.789 180.906 102.816C180.528 102.836 180.164 102.849 179.833 102.849H179.177ZM181.157 110C180.667 110 180.217 109.967 179.813 109.9C179.362 109.834 178.991 109.714 178.687 109.547C178.382 109.381 178.157 109.081 177.998 108.655C177.885 108.342 177.799 107.983 177.746 107.59C177.687 107.197 177.66 106.804 177.66 106.425L177.693 105.719C177.713 105.339 177.793 105.066 177.932 104.906C178.064 104.747 178.402 104.647 178.938 104.607C179.23 104.56 179.568 104.534 179.965 104.52C180.356 104.507 180.753 104.5 181.157 104.5C181.939 104.5 182.588 104.534 183.104 104.6C183.621 104.713 183.946 104.873 184.078 105.073C184.211 105.273 184.303 105.559 184.35 105.919C184.369 106.098 184.389 106.298 184.403 106.504C184.416 106.718 184.416 106.937 184.416 107.164C184.416 107.57 184.383 107.943 184.316 108.276C184.118 109.041 183.614 109.547 182.806 109.794C182.336 109.933 181.786 110 181.157 110Z" fill="black"/>
</svg>
